<svg width="45" height="45" viewBox="0 0 45 45" fill="none" xmlns="http://www.w3.org/2000/svg">
<path d="M22.5 11.25C21.1094 11.25 19.7499 11.6624 18.5936 12.435C17.4374 13.2076 16.5362 14.3057 16.004 15.5905C15.4718 16.8753 15.3326 18.289 15.6039 19.653C15.8752 21.0169 16.5448 22.2698 17.5282 23.2531C18.5115 24.2364 19.7643 24.9061 21.1283 25.1774C22.4922 25.4487 23.906 25.3095 25.1907 24.7773C26.4755 24.2451 27.5737 23.3439 28.3463 22.1876C29.1189 21.0313 29.5312 19.6719 29.5312 18.2812C29.5312 16.4164 28.7905 14.628 27.4718 13.3094C26.1532 11.9908 24.3648 11.25 22.5 11.25ZM22.5 22.5C21.6656 22.5 20.85 22.2526 20.1562 21.789C19.4624 21.3254 18.9217 20.6666 18.6024 19.8957C18.2831 19.1248 18.1995 18.2766 18.3623 17.4582C18.5251 16.6399 18.9269 15.8881 19.5169 15.2981C20.1069 14.7081 20.8586 14.3063 21.677 14.1436C22.4953 13.9808 23.3436 14.0643 24.1144 14.3836C24.8853 14.7029 25.5442 15.2437 26.0078 15.9374C26.4713 16.6312 26.7188 17.4469 26.7188 18.2812C26.7187 19.4001 26.2743 20.4732 25.4831 21.2644C24.6919 22.0555 23.6189 22.5 22.5 22.5ZM22.5 2.8125C18.3989 2.81715 14.467 4.44839 11.5671 7.34833C8.66713 10.2483 7.0359 14.1801 7.03125 18.2812C7.03125 23.8008 9.58184 29.6508 14.4141 35.2002C16.5853 37.7078 19.0291 39.9659 21.7002 41.9326C21.9366 42.0983 22.2183 42.1871 22.507 42.1871C22.7957 42.1871 23.0774 42.0983 23.3139 41.9326C25.98 39.9651 28.419 37.707 30.5859 35.2002C35.4111 29.6508 37.9688 23.8008 37.9688 18.2812C37.9641 14.1801 36.3329 10.2483 33.4329 7.34833C30.533 4.44839 26.6011 2.81715 22.5 2.8125ZM22.5 39.0234C19.5943 36.7383 9.84375 28.3447 9.84375 18.2812C9.84375 14.9246 11.1772 11.7054 13.5507 9.33193C15.9242 6.95842 19.1434 5.625 22.5 5.625C25.8566 5.625 29.0758 6.95842 31.4493 9.33193C33.8228 11.7054 35.1562 14.9246 35.1562 18.2812C35.1562 28.3412 25.4057 36.7383 22.5 39.0234Z" fill="#006F5B"/>
</svg>
