<svg width="45" height="45" viewBox="0 0 45 45" fill="none" xmlns="http://www.w3.org/2000/svg">
<path d="M22.5 2.8125C18.3989 2.81715 14.467 4.44839 11.5671 7.34833C8.66713 10.2483 7.0359 14.1801 7.03125 18.2812C7.03125 31.5176 21.0938 41.5143 21.6932 41.9326C21.9296 42.0983 22.2113 42.1871 22.5 42.1871C22.7887 42.1871 23.0704 42.0983 23.3068 41.9326C23.9062 41.5143 37.9688 31.5176 37.9688 18.2812C37.9641 14.1801 36.3329 10.2483 33.4329 7.34833C30.533 4.44839 26.6011 2.81715 22.5 2.8125ZM22.5 12.6562C23.6125 12.6562 24.7001 12.9862 25.6251 13.6042C26.5501 14.2223 27.2711 15.1008 27.6968 16.1287C28.1226 17.1565 28.234 18.2875 28.0169 19.3786C27.7999 20.4698 27.2641 21.4721 26.4775 22.2587C25.6908 23.0454 24.6885 23.5811 23.5974 23.7982C22.5062 24.0152 21.3752 23.9038 20.3474 23.4781C19.3196 23.0523 18.4411 22.3314 17.823 21.4063C17.2049 20.4813 16.875 19.3938 16.875 18.2812C16.875 16.7894 17.4676 15.3587 18.5225 14.3038C19.5774 13.2489 21.0082 12.6563 22.5 12.6562Z" fill="#006F5B"/>
</svg>
