<svg width="35" height="35" viewBox="0 0 35 35" fill="none" xmlns="http://www.w3.org/2000/svg">
<path d="M16.0303 21.5906C17.4962 20.6147 18.6091 19.1929 19.2045 17.5356C19.7998 15.8782 19.8461 14.0733 19.3363 12.3876C18.8265 10.702 17.7878 9.22517 16.3737 8.17552C14.9597 7.12587 13.2454 6.55914 11.4844 6.55914C9.72332 6.55914 8.00903 7.12587 6.59499 8.17552C5.18095 9.22517 4.14224 10.702 3.63246 12.3876C3.12268 14.0733 3.16889 15.8782 3.76427 17.5356C4.35964 19.1929 5.47257 20.6147 6.93847 21.5906C4.2868 22.5679 2.02221 24.3764 0.482609 26.7463C0.401693 26.8665 0.345488 27.0017 0.317263 27.1438C0.289037 27.286 0.289353 27.4324 0.318192 27.5744C0.347032 27.7165 0.403819 27.8514 0.485254 27.9713C0.566688 28.0912 0.671145 28.1937 0.792554 28.2729C0.913962 28.3521 1.0499 28.4064 1.19246 28.4326C1.33503 28.4588 1.48138 28.4564 1.623 28.4255C1.76463 28.3946 1.8987 28.3359 2.01744 28.2528C2.13617 28.1696 2.2372 28.0637 2.31464 27.9412C3.30775 26.4137 4.66669 25.1586 6.26805 24.2897C7.86941 23.4208 9.66246 22.9656 11.4844 22.9656C13.3063 22.9656 15.0993 23.4208 16.7007 24.2897C18.302 25.1586 19.661 26.4137 20.6541 27.9412C20.8145 28.1796 21.0623 28.3453 21.3439 28.4025C21.6256 28.4597 21.9184 28.4037 22.1591 28.2467C22.3998 28.0897 22.569 27.8443 22.6302 27.5635C22.6914 27.2828 22.6397 26.9892 22.4861 26.7463C20.9465 24.3764 18.6819 22.5679 16.0303 21.5906ZM5.46874 14.7656C5.46874 13.5758 5.82155 12.4128 6.48256 11.4235C7.14356 10.4342 8.08307 9.66319 9.18229 9.20788C10.2815 8.75258 11.491 8.63345 12.658 8.86556C13.8249 9.09767 14.8968 9.67061 15.7381 10.5119C16.5794 11.3532 17.1523 12.4251 17.3844 13.592C17.6165 14.7589 17.4974 15.9685 17.0421 17.0677C16.5868 18.1669 15.8157 19.1064 14.8265 19.7674C13.8372 20.4284 12.6741 20.7812 11.4844 20.7812C9.88948 20.7794 8.36043 20.145 7.23268 19.0173C6.10492 17.8895 5.47055 16.3605 5.46874 14.7656ZM34.1988 28.2597C33.9559 28.4182 33.6599 28.4736 33.3761 28.4139C33.0923 28.3541 32.8438 28.1841 32.6853 27.9412C31.6934 26.4128 30.3347 25.1571 28.733 24.2886C27.1313 23.42 25.3376 22.9663 23.5156 22.9687C23.2255 22.9687 22.9473 22.8535 22.7422 22.6484C22.5371 22.4433 22.4219 22.1651 22.4219 21.875C22.4219 21.5849 22.5371 21.3067 22.7422 21.1016C22.9473 20.8965 23.2255 20.7812 23.5156 20.7812C24.4015 20.7804 25.2763 20.5839 26.0774 20.2058C26.8786 19.8277 27.5864 19.2773 28.1501 18.594C28.7139 17.9106 29.1198 17.1112 29.3388 16.2528C29.5579 15.3944 29.5846 14.4982 29.4171 13.6283C29.2496 12.7584 28.892 11.9362 28.37 11.2205C27.8479 10.5048 27.1742 9.91319 26.397 9.48802C25.6198 9.06286 24.7583 8.81461 23.874 8.761C22.9897 8.70739 22.1045 8.84975 21.2816 9.1779C21.1475 9.2359 21.003 9.26642 20.8569 9.26765C20.7107 9.26889 20.5658 9.24082 20.4307 9.18509C20.2955 9.12937 20.1729 9.04713 20.0701 8.94322C19.9673 8.83932 19.8864 8.71586 19.8321 8.58015C19.7778 8.44444 19.7513 8.29922 19.7541 8.15308C19.7569 8.00694 19.7889 7.86284 19.8483 7.7293C19.9078 7.59576 19.9933 7.47548 20.1 7.37557C20.2067 7.27566 20.3324 7.19816 20.4695 7.14763C22.3528 6.39656 24.4474 6.36954 26.3494 7.07176C28.2514 7.77398 29.826 9.15569 30.7694 10.9503C31.7127 12.745 31.9581 14.8254 31.458 16.7903C30.958 18.7551 29.748 20.4652 28.0615 21.5906C30.7132 22.5679 32.9778 24.3764 34.5174 26.7463C34.6758 26.9892 34.7312 27.2851 34.6715 27.569C34.6118 27.8528 34.4417 28.1013 34.1988 28.2597Z" fill="#006F5B"/>
</svg>
