<svg width="196" height="34" viewBox="0 0 196 34" fill="none" xmlns="http://www.w3.org/2000/svg">
<path d="M0.551563 33V0.839999H2.95156V33H0.551563ZM31.8316 33V0.839999H34.2316V33H31.8316ZM5.83156 33V0.839999H8.23156L17.3516 12.28L26.5516 0.839999H28.9516V33H26.5516V13.08L20.7916 20.44L8.23156 4.68V9.32L18.9516 22.68L17.4316 24.6L8.23156 13.16V33H5.83156ZM26.5516 4.6L18.9516 14.2L20.7916 16.52L26.5516 9.24V4.6ZM45.9097 33V0.839999H65.0297V3.24H48.3097V6.12H65.0297V8.52H48.3097V13.08H62.4697V15.48H48.3097V18.36H62.4697V20.76H48.3097V25.32H65.0297V27.72H48.3097V30.6H65.0297V33H45.9097ZM40.6297 33V0.839999H43.0297V33H40.6297ZM74.9722 33V0.839999H94.0922V3.24H77.3722V6.12H94.0922V8.52H77.3722V13.08H91.5322V15.48H77.3722V18.36H91.5322V20.76H77.3722V25.32H94.0922V27.72H77.3722V30.6H94.0922V33H74.9722ZM69.6922 33V0.839999H72.0922V33H69.6922ZM113.752 28.52C111.459 28.52 109.406 28.0133 107.592 27C105.779 25.9867 104.339 24.6 103.272 22.84C102.206 21.08 101.672 19.1067 101.672 16.92C101.672 14.7333 102.206 12.76 103.272 11C104.339 9.24 105.779 7.85333 107.592 6.84C109.406 5.82667 111.459 5.32 113.752 5.32C115.672 5.32 117.432 5.69333 119.032 6.44C120.686 7.18667 122.046 8.2 123.112 9.48L121.192 10.92C119.379 8.78667 116.899 7.72 113.752 7.72C110.979 7.72 108.659 8.6 106.792 10.36C104.979 12.0667 104.072 14.2533 104.072 16.92C104.072 19.5333 104.979 21.72 106.792 23.48C108.659 25.24 110.979 26.12 113.752 26.12C116.899 26.12 119.379 25.0533 121.192 22.92L123.112 24.36C122.046 25.64 120.686 26.6533 119.032 27.4C117.432 28.1467 115.672 28.52 113.752 28.52ZM113.752 33.8C110.499 33.8 107.566 33.0533 104.952 31.56C102.339 30.0667 100.259 28.04 98.7122 25.48C97.1655 22.92 96.3922 20.0667 96.3922 16.92C96.3922 13.72 97.1655 10.8667 98.7122 8.36C100.259 5.8 102.339 3.77333 104.952 2.28C107.566 0.786665 110.499 0.0399976 113.752 0.0399976C116.526 0.0399976 119.086 0.599998 121.432 1.72C123.779 2.84 125.726 4.33333 127.272 6.2L125.432 7.64C124.099 6.04 122.419 4.78667 120.392 3.88C118.366 2.92 116.152 2.44 113.752 2.44C110.926 2.44 108.366 3.08 106.072 4.36C103.832 5.64 102.046 7.37333 100.712 9.56C99.4322 11.6933 98.7922 14.1467 98.7922 16.92C98.7922 19.64 99.4322 22.0933 100.712 24.28C102.046 26.4667 103.832 28.2 106.072 29.48C108.366 30.76 110.926 31.4 113.752 31.4C116.152 31.4 118.366 30.9467 120.392 30.04C122.419 29.08 124.099 27.8 125.432 26.2L127.272 27.64C125.726 29.5067 123.779 31 121.432 32.12C119.086 33.24 116.526 33.8 113.752 33.8ZM137.785 33V0.839999H140.185V13.08H152.665V0.839999H155.065V33H152.665V20.76H140.185V33H137.785ZM132.505 33V0.839999H134.905V33H132.505ZM157.945 33V0.839999H160.345V33H157.945ZM140.185 18.36H152.665V15.48H140.185V18.36ZM169.923 33L181.603 0.839999H184.163L195.843 33H193.283L182.883 4.36L181.363 8.52L190.243 33H187.683L186.323 29.16H173.843L172.483 33H169.923ZM164.323 33L176.003 0.839999H178.563L166.883 33H164.323ZM176.643 21.48H183.523L180.083 12.04L176.643 21.48ZM174.723 26.76H185.443L184.403 23.88H175.763L174.723 26.76Z" fill="#00B392"/>
</svg>
