<svg width="60" height="60" viewBox="0 0 60 60" fill="none" xmlns="http://www.w3.org/2000/svg">
<circle cx="30" cy="30" r="29.5" fill="white" stroke="#00B292"/>
<g clip-path="url(#clip0_504_69)">
<path d="M38.126 20.9336L38.9971 20.6035L30.2676 43.7744L26.0898 32.7598L15.2539 28.5576L38.4893 20L38.126 20.9336Z" fill="#00B292"/>
<path d="M13.8261 26.0833L37.8736 17.1624L37.9078 17.1501C38.3927 16.9823 38.9149 16.9544 39.415 17.0694C39.915 17.1845 40.3725 17.4379 40.7353 17.8007C41.0981 18.1635 41.3515 18.621 41.4666 19.1211C41.5816 19.6211 41.5537 20.1434 41.3859 20.6282L41.3736 20.6624L32.4527 44.7099C32.2636 45.2418 31.9145 45.7021 31.4533 46.0277C30.9921 46.3533 30.4414 46.5281 29.8769 46.5282H29.8291C29.2524 46.5182 28.6936 46.3261 28.2327 45.9794C27.7718 45.6327 27.4323 45.1491 27.2629 44.5978L27.2506 44.5581L24.348 34.188L13.9779 31.2855L13.9382 31.2732C13.387 31.1055 12.9028 30.768 12.5548 30.3088C12.2067 29.8496 12.0127 29.2922 12.0002 28.7161C11.9878 28.1401 12.1576 27.5748 12.4855 27.101C12.8134 26.6272 13.2826 26.2691 13.8261 26.0778V26.0833ZM26.1213 31.2786C26.3926 31.3546 26.6398 31.4992 26.839 31.6984C27.0382 31.8976 27.1828 32.1448 27.2588 32.4161L29.9494 42.0261L37.875 20.661L16.5113 28.5907L26.1213 31.2786Z" fill="#006F5B"/>
</g>
<defs>
<clipPath id="clip0_504_69">
<rect width="35" height="35" fill="white" transform="matrix(-1 0 0 1 47 12)"/>
</clipPath>
</defs>
</svg>
