<svg width="35" height="35" viewBox="0 0 35 35" fill="none" xmlns="http://www.w3.org/2000/svg">
<path d="M22.4861 26.7463C22.5937 26.9113 22.6548 27.1023 22.6628 27.2992C22.6708 27.496 22.6255 27.6914 22.5317 27.8646C22.4379 28.0379 22.299 28.1825 22.1297 28.2834C21.9605 28.3842 21.7671 28.4374 21.5701 28.4375H1.39861C1.20159 28.4374 1.00824 28.3842 0.838978 28.2834C0.669718 28.1825 0.530835 28.0379 0.437004 27.8646C0.343172 27.6914 0.297876 27.496 0.3059 27.2992C0.313925 27.1023 0.374973 26.9113 0.482594 26.7463C2.02219 24.3764 4.28678 22.5679 6.93845 21.5906C5.47255 20.6147 4.35963 19.1929 3.76425 17.5356C3.16888 15.8782 3.12266 14.0733 3.63244 12.3876C4.14223 10.702 5.18094 9.22517 6.59498 8.17552C8.00902 7.12587 9.72331 6.55914 11.4844 6.55914C13.2454 6.55914 14.9597 7.12587 16.3737 8.17552C17.7878 9.22517 18.8265 10.702 19.3363 12.3876C19.846 14.0733 19.7998 15.8782 19.2045 17.5356C18.6091 19.1929 17.4962 20.6147 16.0303 21.5906C18.6819 22.5679 20.9465 24.3764 22.4861 26.7463ZM34.5051 26.7258C32.965 24.3659 30.7055 22.5652 28.0615 21.5906C29.7921 20.4249 31.0134 18.6435 31.4768 16.609C31.9403 14.5746 31.611 12.44 30.5561 10.6397C29.5012 8.83948 27.7999 7.50889 25.7985 6.9188C23.7971 6.32871 21.646 6.52347 19.7832 7.46345C19.7119 7.50023 19.6497 7.55222 19.6008 7.61574C19.5519 7.67926 19.5175 7.75275 19.5002 7.83102C19.4828 7.90929 19.4829 7.99041 19.5004 8.06865C19.5179 8.14689 19.5523 8.22033 19.6013 8.28376C20.9865 10.0116 21.7821 12.1376 21.8714 14.3504C21.9607 16.5632 21.3391 18.7464 20.0976 20.5802C20.0174 20.7001 19.9877 20.8468 20.0151 20.9884C20.0425 21.13 20.1248 21.255 20.2439 21.3363C21.8625 22.466 23.2482 23.8971 24.325 25.5513C24.7593 26.2164 24.9366 27.0168 24.824 27.8031C24.8113 27.8813 24.8158 27.9613 24.8371 28.0377C24.8584 28.114 24.8961 28.1848 24.9474 28.2451C24.9988 28.3054 25.0626 28.3539 25.1346 28.3871C25.2065 28.4203 25.2848 28.4375 25.364 28.4375H33.6082C33.849 28.4375 34.0832 28.3581 34.2742 28.2115C34.4653 28.0649 34.6027 27.8594 34.665 27.6267C34.703 27.4737 34.7085 27.3144 34.6809 27.1592C34.6533 27.004 34.5934 26.8563 34.5051 26.7258Z" fill="#006F5B"/>
</svg>
