<svg width="50" height="50" viewBox="0 0 50 50" fill="none" xmlns="http://www.w3.org/2000/svg">
<path fill-rule="evenodd" clip-rule="evenodd" d="M24.9688 2C29.7327 2.00517 34.3003 3.90002 37.6689 7.26855C41.0376 10.6372 42.9323 15.2047 42.9375 19.9688C42.9375 26.291 40.0376 32.9709 34.5513 39.2717C32.0962 42.1084 29.3328 44.6632 26.3127 46.8889C25.9189 47.1644 25.4494 47.3125 24.9688 47.3125C24.4884 47.3124 24.0196 47.1642 23.626 46.8889C22.9463 46.4143 7 35.0781 7 19.9688C7.00517 15.2048 8.90002 10.6372 12.2686 7.26855C15.6371 3.89999 20.2049 2.00529 24.9688 2ZM37.0793 26.3079C37.0128 26.4485 36.9453 26.5885 36.8743 26.7266H36.9243C36.9774 26.5877 37.0289 26.4481 37.0793 26.3079ZM26.4641 16.3604C25.7503 16.0647 24.9648 15.9862 24.207 16.137C23.4495 16.2877 22.7538 16.6602 22.2075 17.2063C21.6612 17.7526 21.2889 18.4493 21.1382 19.207C20.9875 19.9647 21.0647 20.7504 21.3604 21.4641C21.656 22.1777 22.1573 22.7879 22.7996 23.217C23.4417 23.6459 24.1965 23.8749 24.9688 23.875C26.0046 23.875 26.9987 23.4636 27.7312 22.7312C28.4638 21.9986 28.875 21.0048 28.875 19.9688C28.875 19.1962 28.6463 18.4407 28.217 17.7983C27.7879 17.1561 27.1777 16.656 26.4641 16.3604Z" fill="#DD5E60"/>
</svg>
