<svg width="35" height="35" viewBox="0 0 35 35" fill="none" xmlns="http://www.w3.org/2000/svg">
<path d="M17.5 3.28125C14.6878 3.28125 11.9388 4.11517 9.60049 5.67754C7.26223 7.23992 5.43978 9.46058 4.36359 12.0587C3.28741 14.6569 3.00583 17.5158 3.55447 20.2739C4.1031 23.0321 5.4573 25.5656 7.44583 27.5542C9.43436 29.5427 11.9679 30.8969 14.7261 31.4455C17.4842 31.9942 20.3431 31.7126 22.9413 30.6364C25.5394 29.5602 27.7601 27.7378 29.3225 25.3995C30.8848 23.0613 31.7188 20.3122 31.7188 17.5C31.7148 13.7302 30.2155 10.1159 27.5498 7.45022C24.8841 4.78455 21.2698 3.28523 17.5 3.28125ZM10.1281 27.002C10.9194 25.7645 12.0094 24.7461 13.2977 24.0407C14.586 23.3353 16.0312 22.9655 17.5 22.9655C18.9688 22.9655 20.414 23.3353 21.7023 24.0407C22.9906 24.7461 24.0806 25.7645 24.8719 27.002C22.7641 28.6412 20.1702 29.5312 17.5 29.5312C14.8299 29.5312 12.2359 28.6412 10.1281 27.002ZM13.125 16.4062C13.125 15.541 13.3816 14.6951 13.8623 13.9756C14.3431 13.2562 15.0263 12.6954 15.8258 12.3643C16.6252 12.0331 17.5049 11.9465 18.3535 12.1153C19.2022 12.2841 19.9817 12.7008 20.5936 13.3127C21.2055 13.9245 21.6221 14.7041 21.7909 15.5527C21.9598 16.4014 21.8731 17.2811 21.542 18.0805C21.2108 18.8799 20.6501 19.5632 19.9306 20.0439C19.2112 20.5247 18.3653 20.7812 17.5 20.7812C16.3397 20.7812 15.2269 20.3203 14.4064 19.4998C13.5859 18.6794 13.125 17.5666 13.125 16.4062ZM26.4906 25.4857C25.2708 23.7181 23.5555 22.3505 21.5606 21.5551C22.6322 20.711 23.4141 19.554 23.7977 18.245C24.1813 16.9359 24.1474 15.5399 23.7008 14.2509C23.2541 12.962 22.4169 11.8443 21.3056 11.0533C20.1943 10.2622 18.8641 9.83716 17.5 9.83716C16.1359 9.83716 14.8057 10.2622 13.6944 11.0533C12.5831 11.8443 11.7459 12.962 11.2992 14.2509C10.8526 15.5399 10.8187 16.9359 11.2023 18.245C11.5859 19.554 12.3678 20.711 13.4395 21.5551C11.4445 22.3505 9.72923 23.7181 8.50938 25.4857C6.96797 23.7524 5.96049 21.6104 5.60827 19.3177C5.25605 17.025 5.57409 14.6793 6.52411 12.5632C7.47413 10.4471 9.01561 8.65071 10.9629 7.39038C12.9103 6.13005 15.1804 5.45952 17.5 5.45952C19.8196 5.45952 22.0897 6.13005 24.0371 7.39038C25.9844 8.65071 27.5259 10.4471 28.4759 12.5632C29.4259 14.6793 29.744 17.025 29.3917 19.3177C29.0395 21.6104 28.032 23.7524 26.4906 25.4857Z" fill="#006F5B"/>
</svg>
