<svg width="123" height="22" viewBox="0 0 123 22" fill="none" xmlns="http://www.w3.org/2000/svg">
<path d="M0.219727 21V0.899999H1.71973V21H0.219727ZM19.7697 21V0.899999H21.2697V21H19.7697ZM3.51973 21V0.899999H5.01973L10.7197 8.05L16.4697 0.899999H17.9697V21H16.4697V8.55L12.8697 13.15L5.01973 3.3V6.2L11.7197 14.55L10.7697 15.75L5.01973 8.6V21H3.51973ZM16.4697 3.25L11.7197 9.25L12.8697 10.7L16.4697 6.15V3.25ZM28.5686 21V0.899999H40.5186V2.4H30.0686V4.2H40.5186V5.7H30.0686V8.55H38.9186V10.05H30.0686V11.85H38.9186V13.35H30.0686V16.2H40.5186V17.7H30.0686V19.5H40.5186V21H28.5686ZM25.2686 21V0.899999H26.7686V21H25.2686ZM46.7326 21V0.899999H58.6826V2.4H48.2326V4.2H58.6826V5.7H48.2326V8.55H57.0826V10.05H48.2326V11.85H57.0826V13.35H48.2326V16.2H58.6826V17.7H48.2326V19.5H58.6826V21H46.7326ZM43.4326 21V0.899999H44.9326V21H43.4326ZM70.9701 18.2C69.5368 18.2 68.2535 17.8833 67.1201 17.25C65.9868 16.6167 65.0868 15.75 64.4201 14.65C63.7535 13.55 63.4201 12.3167 63.4201 10.95C63.4201 9.58333 63.7535 8.35 64.4201 7.25C65.0868 6.15 65.9868 5.28333 67.1201 4.65C68.2535 4.01667 69.5368 3.7 70.9701 3.7C72.1701 3.7 73.2701 3.93333 74.2701 4.4C75.3035 4.86667 76.1535 5.5 76.8201 6.3L75.6201 7.2C74.4868 5.86667 72.9368 5.2 70.9701 5.2C69.2368 5.2 67.7868 5.75 66.6201 6.85C65.4868 7.91667 64.9201 9.28333 64.9201 10.95C64.9201 12.5833 65.4868 13.95 66.6201 15.05C67.7868 16.15 69.2368 16.7 70.9701 16.7C72.9368 16.7 74.4868 16.0333 75.6201 14.7L76.8201 15.6C76.1535 16.4 75.3035 17.0333 74.2701 17.5C73.2701 17.9667 72.1701 18.2 70.9701 18.2ZM70.9701 21.5C68.9368 21.5 67.1035 21.0333 65.4701 20.1C63.8368 19.1667 62.5368 17.9 61.5701 16.3C60.6035 14.7 60.1201 12.9167 60.1201 10.95C60.1201 8.95 60.6035 7.16667 61.5701 5.6C62.5368 4 63.8368 2.73333 65.4701 1.8C67.1035 0.866666 68.9368 0.399998 70.9701 0.399998C72.7035 0.399998 74.3035 0.749998 75.7701 1.45C77.2368 2.15 78.4535 3.08333 79.4201 4.25L78.2701 5.15C77.4368 4.15 76.3868 3.36667 75.1201 2.8C73.8535 2.2 72.4701 1.9 70.9701 1.9C69.2035 1.9 67.6035 2.3 66.1701 3.1C64.7701 3.9 63.6535 4.98333 62.8201 6.35C62.0201 7.68333 61.6201 9.21667 61.6201 10.95C61.6201 12.65 62.0201 14.1833 62.8201 15.55C63.6535 16.9167 64.7701 18 66.1701 18.8C67.6035 19.6 69.2035 20 70.9701 20C72.4701 20 73.8535 19.7167 75.1201 19.15C76.3868 18.55 77.4368 17.75 78.2701 16.75L79.4201 17.65C78.4535 18.8167 77.2368 19.75 75.7701 20.45C74.3035 21.15 72.7035 21.5 70.9701 21.5ZM85.9904 21V0.899999H87.4904V8.55H95.2904V0.899999H96.7904V21H95.2904V13.35H87.4904V21H85.9904ZM82.6904 21V0.899999H84.1904V21H82.6904ZM98.5904 21V0.899999H100.09V21H98.5904ZM87.4904 11.85H95.2904V10.05H87.4904V11.85ZM106.077 21L113.377 0.899999H114.977L122.277 21H120.677L114.177 3.1L113.227 5.7L118.777 21H117.177L116.327 18.6H108.527L107.677 21H106.077ZM102.577 21L109.877 0.899999H111.477L104.177 21H102.577ZM110.277 13.8H114.577L112.427 7.9L110.277 13.8ZM109.077 17.1H115.777L115.127 15.3H109.727L109.077 17.1Z" fill="#00B292"/>
</svg>
