<svg width="60" height="60" viewBox="0 0 60 60" fill="none" xmlns="http://www.w3.org/2000/svg">
<circle cx="30" cy="30" r="29.5" fill="white" stroke="#00B292"/>
<path d="M13.8266 26.0835L37.874 17.1626L37.9082 17.1503C38.3931 16.9825 38.9154 16.9546 39.4154 17.0696C39.9154 17.1847 40.3729 17.4381 40.7357 17.8009C41.0985 18.1637 41.3519 18.6212 41.467 19.1212C41.582 19.6212 41.5541 20.1435 41.3863 20.6284L41.374 20.6626L32.4531 44.7101C32.264 45.242 31.9149 45.7023 31.4537 46.0279C30.9925 46.3534 30.4419 46.5283 29.8773 46.5284H29.8295C29.2528 46.5184 28.6941 46.3263 28.2332 45.9796C27.7722 45.6328 27.4328 45.1493 27.2633 44.5979L27.251 44.5583L24.3484 34.1882L13.9783 31.2856L13.9387 31.2733C13.3874 31.1057 12.9032 30.7681 12.5552 30.3089C12.2072 29.8497 12.0131 29.2923 12.0007 28.7163C11.9882 28.1402 12.1581 27.575 12.486 27.1012C12.8139 26.6274 13.2831 26.2693 13.8266 26.078V26.0835ZM26.1217 31.2788C26.393 31.3548 26.6402 31.4993 26.8394 31.6986C27.0387 31.8978 27.1832 32.145 27.2592 32.4163L29.9498 42.0263L37.8754 20.6612L16.5117 28.5909L26.1217 31.2788Z" fill="#006F5B"/>
</svg>
