<svg width="50" height="50" viewBox="0 0 50 50" fill="none" xmlns="http://www.w3.org/2000/svg">
<path d="M25 8C29.2409 8.0049 33.3079 9.69729 36.3076 12.7061C39.3075 15.7152 40.9954 19.7959 41 24.0527C40.9997 29.7433 38.3939 35.8581 33.3105 41.7139L33.3086 41.7158C31.0386 44.3466 28.4837 46.716 25.6924 48.7812C25.4885 48.9231 25.2471 49 25 49L24.8154 48.9854C24.6328 48.957 24.4574 48.8871 24.3037 48.7793L24.0361 48.5859C23.055 47.8655 19.6889 45.2771 16.3857 41.3857C12.5977 36.9231 9.00036 30.8752 9 24.0527C9.00462 19.796 10.6926 15.7152 13.6924 12.7061C16.692 9.69729 20.7591 8.00502 25 8Z" fill="white" stroke="#00B292" stroke-width="2"/>
<path d="M24.5 1C35.2696 1 44 9.73045 44 20.5C44 31.2696 35.2696 40 24.5 40C13.7304 40 5 31.2696 5 20.5C5 9.73045 13.7304 1 24.5 1Z" fill="white" stroke="#00B292" stroke-width="2"/>
</svg>
