<svg width="30" height="30" viewBox="0 0 30 30" fill="none" xmlns="http://www.w3.org/2000/svg">
<path d="M24.375 9.375H20.625V6.5625C20.625 5.07066 20.0324 3.63992 18.9775 2.58502C17.9226 1.53013 16.4918 0.9375 15 0.9375C13.5082 0.9375 12.0774 1.53013 11.0225 2.58502C9.96763 3.63992 9.375 5.07066 9.375 6.5625V9.375H5.625C5.12772 9.375 4.65081 9.57254 4.29917 9.92418C3.94754 10.2758 3.75 10.7527 3.75 11.25V24.375C3.75 24.8723 3.94754 25.3492 4.29917 25.7008C4.65081 26.0525 5.12772 26.25 5.625 26.25H24.375C24.8723 26.25 25.3492 26.0525 25.7008 25.7008C26.0525 25.3492 26.25 24.8723 26.25 24.375V11.25C26.25 10.7527 26.0525 10.2758 25.7008 9.92418C25.3492 9.57254 24.8723 9.375 24.375 9.375ZM15.9375 18.5895V21.5625C15.9375 21.8111 15.8387 22.0496 15.6629 22.2254C15.4871 22.4012 15.2486 22.5 15 22.5C14.7514 22.5 14.5129 22.4012 14.3371 22.2254C14.1613 22.0496 14.0625 21.8111 14.0625 21.5625V18.5895C13.437 18.3683 12.9098 17.9331 12.5741 17.3609C12.2384 16.7886 12.1158 16.1161 12.228 15.4622C12.3402 14.8083 12.6799 14.2151 13.1872 13.7875C13.6944 13.3598 14.3365 13.1253 15 13.1253C15.6635 13.1253 16.3056 13.3598 16.8128 13.7875C17.3201 14.2151 17.6598 14.8083 17.772 15.4622C17.8842 16.1161 17.7616 16.7886 17.4259 17.3609C17.0902 17.9331 16.563 18.3683 15.9375 18.5895ZM18.75 9.375H11.25V6.5625C11.25 5.56794 11.6451 4.61411 12.3483 3.91085C13.0516 3.20759 14.0054 2.8125 15 2.8125C15.9946 2.8125 16.9484 3.20759 17.6516 3.91085C18.3549 4.61411 18.75 5.56794 18.75 6.5625V9.375Z" fill="#006F5B"/>
</svg>
